<svg xmlns="http://www.w3.org/2000/svg" viewBox="0 0 1418.5 406.54"><defs><style>.cls-1{fill:#fff;}.cls-2{fill:#0ca6ff;}</style></defs><g id="Layer_2" data-name="Layer 2"><g id="Layer_1-2" data-name="Layer 1"><g id="BLUE"><path class="cls-1" d="M185.86,222.2c0,59.59-31.65,94.95-85.18,94.95-23.24,0-43.44-8.42-56.57-22.9L22.56,313.78H0v-266H57.24v93.94a91.46,91.46,0,0,1,48.49-14.14C156.23,127.58,185.86,162.6,185.86,222.2Zm-60.94,0c0-29-14.48-46.13-38.72-46.13-10.44,0-21.55,3-29,7.41v78.11c6.74,4,17.51,6.74,29,6.74C110.44,268.33,124.92,251.49,124.92,222.2Z"/><path class="cls-1" d="M206.39,265V47.78h57.24V257.55c0,6.74,6.07,10.78,16.17,10.78,5.05,0,8.75-.34,11.45-1.35l8.41,43.43c-11.11,4-23.9,6.74-35.69,6.74C227.94,317.15,206.39,297.62,206.39,265Z"/><path class="cls-1" d="M510.77,274.72l-22.89,44.45C464.31,314.79,447.13,306,437,293.92c-17.17,14.81-39.73,23.23-64.31,23.23-41.75,0-66.67-23.23-66.67-62.63V131h57.24V243.07c0,16.16,10.44,25.26,27.95,25.26,13.81,0,27.61-4,36-10.44V131h57.24V250.82C484.51,263.61,494.27,272.37,510.77,274.72Z"/><path class="cls-1" d="M665,256.88l24.25,38.72c-19.53,13.47-49.5,21.55-81.15,21.55-62,0-98-35.36-98-94.95s38.38-94.62,103.37-94.62c50.17,0,79.46,22.56,79.46,60.27,0,35.69-26.26,56.91-70,56.91-18.19,0-36-3.37-50.51-9.43,4.71,21.21,20.88,33,46.13,33C636.69,268.33,649.82,264.62,665,256.88Zm-91.24-56.23a150.06,150.06,0,0,0,30.64,3c17.51,0,27.61-5.73,27.61-15.83,0-9.76-8.42-15.49-22.23-15.49C591.57,172.36,579.11,182.47,573.73,200.65Z"/></g><rect id="I" class="cls-1" x="1035.86" y="124.62" width="58" height="183.15"/><path id="R" class="cls-1" d="M1110.05,123.73v184h55.4V187.36s17.53-12,33.42-11.44a227.29,227.29,0,0,1,26.55,2.29l22.89-51.73s-36.63-8.7-55.85-.92-34.35,18.32-33.89,20.15l-2.32-.05V123.33Z"/><g id="E"><path class="cls-1" d="M1390.16,251l24.59,39.27c-19.81,13.66-50.21,21.85-82.31,21.85-62.85,0-99.39-35.85-99.39-96.28s38.93-96,104.85-96c50.89,0,80.6,22.88,80.6,61.12,0,36.19-26.64,57.7-71,57.7-18.44,0-36.54-3.41-51.23-9.56,4.78,21.51,21.18,33.46,46.79,33.46C1361.47,262.63,1374.79,258.88,1390.16,251Zm-92.56-57a152.17,152.17,0,0,0,31.08,3.08c17.76,0,28-5.81,28-16.05,0-9.9-8.53-15.71-22.54-15.71C1315.7,165.32,1303.06,175.57,1297.6,194Z"/></g><path class="cls-2" d="M416.35,111.33a3.49,3.49,0,0,1-2.85-5.46c1.67-2.42,4.28-4.74,8.17-4.74,8.06,0,267.86-7,273.14-7.11H695c1.12-.1,13.83-1,15.85,3.52,2.12,4.75,27.31,91.41,41.85,163.42,0,0,.79,4.55,4.38,4.55s3.33,3.84,8.45-25.32c5.06-28.8,48.6-214.28,49.69-218.91,0-.06,0-.12,0-.19.51-1.66,7.65-23.44,31.56-20.88,24.86,2.66,32.11,33.24,32.11,33.24l55.79,188.8s.7,4.08,3.26,4.06,4.07.73,7.19-8.39c3.06-8.93,47.21-107.63,49.1-111.85a2,2,0,0,0,.1-.26c.45-1.32,4.7-13.22,12.59-13.22,7.15,0,161.82,4.23,206.16,5.44,6.15.17,6.44,9.22.31,9.76l-.49,0c-15.69,1.21-174.75,4.39-182.71,4.55a2.78,2.78,0,0,1-.58,0c-1.8-.29-11.83-1.38-15.09,9.93-3.4,11.79-52,175.67-57.09,192.82a13.37,13.37,0,0,1-1.47,3.27c-2.6,4.15-10,14-22,13.69a33.05,33.05,0,0,1-15.26-3.91,18.75,18.75,0,0,1-8.63-10.3L860.32,176a1.42,1.42,0,0,1-.07-.22l-7.48-26.88s-.2-2.82-3.63-2.61a4.71,4.71,0,0,0-4.24,3.42L780.3,390.14a15.58,15.58,0,0,1-2.06,4.57c-2.73,4.07-9,12.31-17.73,11.81-17-1-25.28-14-28.45-34,0-.13,0-.26,0-.39L693.8,127.91c0-.13,0-.25,0-.39,0-1.64-1.11-15.14-20.55-15C654.34,112.73,452.05,111.54,416.35,111.33Z"/></g></g></svg>