<svg id="Layer_1" data-name="Layer 1" xmlns="http://www.w3.org/2000/svg" viewBox="0 0 194.75 39.52">
    <defs>
        <style>.cls-1{fill:#c71f3a;}.cls-1,.cls-2{fill-rule:evenodd;}.cls-2{fill:#333;}</style>
    </defs>
    <title>logo_dk</title>
    <path class="cls-1"
          d="M641.35,508.1H621.58V493.78h19.57a4.41,4.41,0,0,1,3.59,1.88v0l5.83,10.1v0A19.84,19.84,0,0,1,641.35,508.1Z"
          transform="translate(-621.58 -468.57)"/>
    <path class="cls-1" d="M621.58,487.27v-18.7h19.88l-7.76,18.7Z" transform="translate(-621.58 -468.57)"/>
    <path class="cls-1"
          d="M655.81,501.81v0l-5-8.62-.55-1a10.41,10.41,0,0,0-4.26-3.78,10.84,10.84,0,0,0-5-1.15h0l7.14-17.51a19.78,19.78,0,0,1,8.09,31.62Z"
          transform="translate(-621.58 -468.57)"/>
    <path class="cls-2"
          d="M743.54,499.31a7.87,7.87,0,0,1-3.15-3.1,9.68,9.68,0,0,1-1.13-4.72,9.22,9.22,0,0,1,1.13-4.55,7.91,7.91,0,0,1,3.1-3.1,9.55,9.55,0,0,1,4.64-1.15,10.32,10.32,0,0,1,3.69.63,7.19,7.19,0,0,1,2.84,1.91,7.75,7.75,0,0,1,1.68,3.19,12.88,12.88,0,0,1,.29,4.47.26.26,0,0,1-.24.22H743.33l.06.31a4.09,4.09,0,0,0,.71,1.5,4.41,4.41,0,0,0,1.75,1.36,6.42,6.42,0,0,0,2.57.49,7,7,0,0,0,1.69-.21,7.87,7.87,0,0,0,1.65-.58,4,4,0,0,0,1.24-.91.22.22,0,0,1,.34,0l2.22,2.16a.23.23,0,0,1,0,.33,8,8,0,0,1-2.08,1.61,10.77,10.77,0,0,1-2.52,1,11.53,11.53,0,0,1-2.63.31A10.13,10.13,0,0,1,743.54,499.31Zm52.65,0a7.83,7.83,0,0,1-3.16-3.1,9.81,9.81,0,0,1-1.12-4.72,9.34,9.34,0,0,1,1.12-4.55,7.94,7.94,0,0,1,3.11-3.1,9.54,9.54,0,0,1,4.62-1.15,10.38,10.38,0,0,1,3.71.63,7.07,7.07,0,0,1,2.82,1.91,7.48,7.48,0,0,1,1.68,3.19,12.59,12.59,0,0,1,.29,4.47.24.24,0,0,1-.23.22H796l0,.31a4.29,4.29,0,0,0,.71,1.5,4.5,4.5,0,0,0,1.75,1.36,6.55,6.55,0,0,0,2.57.49,7,7,0,0,0,1.7-.21,8.38,8.38,0,0,0,1.65-.58,4.08,4.08,0,0,0,1.23-.91.24.24,0,0,1,.35,0l2.22,2.16a.23.23,0,0,1,0,.33,7.83,7.83,0,0,1-2.09,1.61,10.88,10.88,0,0,1-2.51,1,11.69,11.69,0,0,1-2.63.31A10.17,10.17,0,0,1,796.18,499.31Zm-98.86.39a8.18,8.18,0,0,1-2.75-1.85,8.53,8.53,0,0,1-1.75-2.79,10.06,10.06,0,0,1,0-6.93,8.57,8.57,0,0,1,1.77-2.8,8,8,0,0,1,2.74-1.86,9.72,9.72,0,0,1,7.12,0,8.08,8.08,0,0,1,2.78,1.86,8.44,8.44,0,0,1,1.8,2.8,9.56,9.56,0,0,1,.64,3.46,9.77,9.77,0,0,1-.63,3.46,8,8,0,0,1-4.54,4.64,9.84,9.84,0,0,1-3.6.66A9.72,9.72,0,0,1,697.33,499.69Zm-20.47.07a7.73,7.73,0,0,1-4.58-4.49,10,10,0,0,1-.65-3.71,10.43,10.43,0,0,1,.64-3.79,7.62,7.62,0,0,1,1.8-2.78,7.83,7.83,0,0,1,2.73-1.68,10.25,10.25,0,0,1,3.39-.57,8.1,8.1,0,0,1,1.65.19,9.81,9.81,0,0,1,1.68.57,7.52,7.52,0,0,1,1.52,1,5.93,5.93,0,0,1,.62.62l.06.08v-8.68a.24.24,0,0,1,.24-.24h3.44a.24.24,0,0,1,.23.24v23.3a.24.24,0,0,1-.23.23h-3.25a.24.24,0,0,1-.23-.22l-.16-1.94-.37.43a4.73,4.73,0,0,1-.86.77,6.72,6.72,0,0,1-2.05,1,7.65,7.65,0,0,1-2.22.3A10,10,0,0,1,676.85,499.77Zm37-1a6.29,6.29,0,0,1-1.53-4.55V479a.24.24,0,0,1,.22-.23l3.46-.37a.24.24,0,0,1,.25.24v4.53h4.56a.24.24,0,0,1,.24.24v3a.23.23,0,0,1-.24.22h-4.6v7.61a2.79,2.79,0,0,0,.53,1.85,2,2,0,0,0,1.61.63,4.31,4.31,0,0,0,1-.16,5.56,5.56,0,0,0,1-.39.23.23,0,0,1,.33.13l1,2.93a.23.23,0,0,1-.12.29,9.94,9.94,0,0,1-1.69.57,7.83,7.83,0,0,1-1.7.18A5.54,5.54,0,0,1,713.9,498.74Zm10.21,1.05v-23.3a.24.24,0,0,1,.23-.24h3.46a.24.24,0,0,1,.24.24v13l5.69-6.28.17-.07h4.16a.23.23,0,0,1,.24.23v.21l-.06.16-6.94,7.36,7.91,8.31.06.16v.24a.23.23,0,0,1-.23.23h-4.2l-.18-.07L728,492.79v7a.24.24,0,0,1-.24.23h-3.46A.24.24,0,0,1,724.11,499.79Zm35.55,0V483.36a.22.22,0,0,1,.23-.23h3.2a.23.23,0,0,1,.23.21l.16,1.52.31-.4a4.32,4.32,0,0,1,.78-.71,5,5,0,0,1,1.75-.8,7.19,7.19,0,0,1,1.82-.18,7.77,7.77,0,0,1,1.07.07.22.22,0,0,1,.19.23v3.51a.23.23,0,0,1-.23.24h-.08l-.29-.07a4.14,4.14,0,0,0-1.06-.12,4.7,4.7,0,0,0-2.1.47,3.69,3.69,0,0,0-1.51,1.41,4.69,4.69,0,0,0-.59,2.39v8.9a.24.24,0,0,1-.23.23H759.9A.23.23,0,0,1,759.67,499.79Zm12.91,0V483.32a.24.24,0,0,1,.24-.23h3.13a.26.26,0,0,1,.24.22l.14,1.88.25-.25a8.25,8.25,0,0,1,2-1.41,7,7,0,0,1,3.08-.66,7.45,7.45,0,0,1,3.73.94,6.72,6.72,0,0,1,2.6,2.78,9.53,9.53,0,0,1,1,4.37v8.84a.24.24,0,0,1-.23.23h-3.46a.24.24,0,0,1-.24-.23V491a5.45,5.45,0,0,0-.49-2.39,3.75,3.75,0,0,0-1.41-1.56,4.59,4.59,0,0,0-2.28-.54,4.21,4.21,0,0,0-2.29.63,4.29,4.29,0,0,0-1.52,1.69,5.11,5.11,0,0,0-.57,2.37v8.61a.23.23,0,0,1-.23.23h-3.43A.24.24,0,0,1,772.57,499.79Zm39.86,0v-23.3a.23.23,0,0,1,.23-.24h3.44a.24.24,0,0,1,.23.24v23.3a.24.24,0,0,1-.23.23h-3.44A.23.23,0,0,1,812.43,499.79ZM683,496a4.84,4.84,0,0,0,1.79-1.77,5.38,5.38,0,0,0,.69-2.7,5.29,5.29,0,0,0-.69-2.68A4.88,4.88,0,0,0,683,487.1a5.26,5.26,0,0,0-2.52-.65,5.1,5.1,0,0,0-2.52.62,4.36,4.36,0,0,0-1.77,1.73,6,6,0,0,0,0,5.5,4.53,4.53,0,0,0,1.77,1.76,5.12,5.12,0,0,0,2.52.64A5.23,5.23,0,0,0,683,496Zm20.49,0a4.41,4.41,0,0,0,1.67-1.82,5.68,5.68,0,0,0,.58-2.58,5.78,5.78,0,0,0-.62-2.58,5,5,0,0,0-1.7-1.87,4.89,4.89,0,0,0-5.08,0,4.76,4.76,0,0,0-1.65,1.87,6,6,0,0,0,0,5.17,4.61,4.61,0,0,0,1.64,1.82,5.12,5.12,0,0,0,5.17,0Zm49.33-6.28,0-.34a3.53,3.53,0,0,0-.62-1.47,3.75,3.75,0,0,0-1.58-1.27,6.07,6.07,0,0,0-2.35-.42,5.78,5.78,0,0,0-2.22.42,4.57,4.57,0,0,0-1.7,1.28,5,5,0,0,0-.8,1.48l-.07.31Zm52.65,0-.06-.34a3.52,3.52,0,0,0-.6-1.47,3.83,3.83,0,0,0-1.58-1.27,6.16,6.16,0,0,0-2.35-.42,5.84,5.84,0,0,0-2.23.42,4.53,4.53,0,0,0-1.69,1.28,4.72,4.72,0,0,0-.8,1.48l-.08.31Z"
          transform="translate(-621.58 -468.57)"/>
</svg>
