<?xml version="1.0" encoding="UTF-8"?><svg id="Layer_2" xmlns="http://www.w3.org/2000/svg" viewBox="0 0 56.02 56.02"><defs><style>.cls-1{fill:#c71f38;fill-rule:evenodd;stroke-width:0px;}</style></defs><g id="Layer_1-2"><path class="cls-1" d="m28.01,56.02H0v-20.27h27.74c.95,0,1.9.18,2.76.63,1,.5,1.76,1.18,2.35,2.04h0l8.24,14.34h.05c-4.07,2.17-8.6,3.26-13.12,3.26Z"/><path class="cls-1" d="m0,26.52V0h28.01v.05-.05h.18l-11,26.52H0Z"/><path class="cls-1" d="m48.51,47.11v-.05l-7.06-12.22-.77-1.36c-1.67-2.53-3.57-4.12-6.02-5.34-2.31-1.18-4.75-1.67-7.15-1.63h-.05L37.6,1.67c3.17,1.18,6.2,2.94,8.87,5.29,11.63,10.18,12.81,27.92,2.58,39.51-.18.23-.36.41-.54.63Z"/></g></svg>